# xmcd CD database file
#
# Track frame offsets:
#	150
#	26167
#	48102
#	62410
#	76212
#	95920
#	123260
#	144565
#	166247
#	195672
#	223555
#	247662
#	270620
#	290305
#
# Disc length: 4130 seconds
#
# Revision: 6
# Processed by: cddbd v1.5PL3 Copyright (c) Steve Scherf et al.
# Submitted via: CDex 1.50
#
DISCID=bd10200e
DTITLE=EPO - カウイ−唄の谷−EPO Best Album
DYEAR=1994
DGENRE=JPop
TTITLE0=ある朝、風に吹かれて
TTITLE1=遠い窓近い窓
TTITLE2=涙
TTITLE3=開きかけた扉
TTITLE4=私の気持ちが何故わかる？
TTITLE5=12月のエイプリルフール
TTITLE6=Wica
TTITLE7=水色の声
TTITLE8=百年の孤独
TTITLE9=枕の港
TTITLE10=矛盾の中で生きている
TTITLE11=見知らぬ手と手
TTITLE12=きっと〜光のありか
TTITLE13=汽車
EXTD=YEAR: 1994
EXTT0=
EXTT1=
EXTT2=
EXTT3=
EXTT4=
EXTT5=
EXTT6=
EXTT7=
EXTT8=
EXTT9=
EXTT10=
EXTT11=
EXTT12=
EXTT13=
PLAYORDER=
